<?xml version="1.0" encoding="UTF-8" standalone="no"?>
<svg width="40px" height="41px" viewBox="0 0 40 41" version="1.1" xmlns="http://www.w3.org/2000/svg" xmlns:xlink="http://www.w3.org/1999/xlink">
    <!-- Generator: Sketch 39.1 (31720) - http://www.bohemiancoding.com/sketch -->
    <title>articles_facebook_icon</title>
    <desc>Created with Sketch.</desc>
    <defs></defs>
    <g id="T4--Article" stroke="none" stroke-width="1" fill="none" fill-rule="evenodd">
        <g id="T4-Articles-&amp;-News-1440" transform="translate(-333.000000, -2512.000000)">
            <g id="articles_facebook_icon" transform="translate(335.000000, 2514.000000)">
                <path d="M16.8532489,10.3639562 C17.5652331,9.68205534 18.5779472,9.45173884 19.5332717,9.42303286 C20.543637,9.41389508 21.5536035,9.41942232 22.5639688,9.41982349 C22.5679572,10.491885 22.5682674,11.5643478 22.5635699,12.6363647 C21.9106149,12.6352058 21.2571723,12.6379694 20.6042616,12.6352058 C20.1902152,12.6092634 19.7650455,12.9249401 19.6897523,13.3377892 C19.6798698,14.0551268 19.686207,14.7728656 19.6865615,15.4902478 C20.6442348,15.4942149 21.6019525,15.4890443 22.5595815,15.4926548 C22.4894732,16.530394 22.3614437,17.5634083 22.2113447,18.5924109 C21.3654368,18.6003897 20.5190415,18.5916085 19.6731337,18.5968237 C19.6655999,21.6575325 19.6771222,24.7182413 19.6672396,27.77895 C18.4107864,27.7841207 17.1535798,27.776543 15.8971709,27.782516 C15.8733731,24.7214061 15.8991208,21.658736 15.8840976,18.5972249 C15.2711158,18.5908062 14.6577794,18.6016378 14.0448419,18.5920543 C14.0471907,17.5630517 14.0456396,16.5340937 14.0459941,15.5054477 C14.6585328,15.4979146 15.2715147,15.5070524 15.8840976,15.5010794 C15.9027104,14.5007382 15.8654405,13.4992381 15.9035081,12.4997439 C15.9649304,11.7081897 16.2648625,10.9107071 16.8532489,10.3639562" id="Fill-1" fill="#0077DA"></path>
                <ellipse id="Oval-7" stroke="#0077DA" stroke-width="3" cx="18.2582945" cy="18.364714" rx="18.2582945" ry="18.364714"></ellipse>
            </g>
        </g>
    </g>
</svg>