<?xml version="1.0" encoding="UTF-8" standalone="no"?>
<svg width="41px" height="41px" viewBox="0 0 41 41" version="1.1" xmlns="http://www.w3.org/2000/svg" xmlns:xlink="http://www.w3.org/1999/xlink">
    <!-- Generator: Sketch 39.1 (31720) - http://www.bohemiancoding.com/sketch -->
    <title>articles_linkedin_icon</title>
    <desc>Created with Sketch.</desc>
    <defs></defs>
    <g id="T4--Article" stroke="none" stroke-width="1" fill="none" fill-rule="evenodd">
        <g id="T4-Articles-&amp;-News-1440" transform="translate(-446.000000, -2512.000000)">
            <g id="articles_linkedin_icon" transform="translate(448.000000, 2514.000000)">
                <path d="M11.3383623,14.4634907 L14.3494941,14.4634907 L14.3494941,24.5976031 L11.3383623,24.5976031 L11.3383623,14.4634907 Z M22.5767105,14.366073 C20.8516963,14.366073 19.7707879,15.3584883 19.5710229,16.0542021 L19.5710229,14.4634907 L16.1884204,14.4634907 C16.231975,15.3082225 16.1884204,24.5976031 16.1884204,24.5976031 L19.5710229,24.5976031 L19.5710229,19.1137414 C19.5710229,18.809033 19.5576215,18.5043246 19.6447308,18.2854683 C19.8771617,17.6760515 20.3767834,17.0439484 21.2750974,17.0439484 C22.4498158,17.0439484 22.9837787,17.9807599 22.9837787,19.3535047 L22.9837787,24.5976031 L26.3982096,24.5976031 L26.3982096,18.9629441 C26.3982096,15.8237802 24.71675,14.366073 22.5767105,14.366073 Z M12.7882285,9.67979112 C11.6763294,9.67979112 10.9488834,10.4382259 10.9488834,11.439093 C10.9488834,12.4212771 11.6558084,13.1961706 12.7455115,13.1961706 L12.7672888,13.1961706 C13.8992901,13.1961706 14.6041211,12.4186082 14.6041211,11.436424 C14.5823438,10.4364466 13.8992901,9.67979112 12.7882285,9.67979112 Z" id="Fill-88" fill="#0077DA"></path>
                <ellipse id="Oval-7-Copy-3" stroke="#0077DA" stroke-width="3" cx="18.4394658" cy="18.364714" rx="18.2582945" ry="18.364714"></ellipse>
            </g>
        </g>
    </g>
</svg>