<?xml version="1.0" encoding="UTF-8" standalone="no"?>
<svg width="40px" height="41px" viewBox="0 0 40 41" version="1.1" xmlns="http://www.w3.org/2000/svg" xmlns:xlink="http://www.w3.org/1999/xlink">
    <!-- Generator: Sketch 39.1 (31720) - http://www.bohemiancoding.com/sketch -->
    <title>articles_twitter_icon</title>
    <desc>Created with Sketch.</desc>
    <defs></defs>
    <g id="T4--Article" stroke="none" stroke-width="1" fill="none" fill-rule="evenodd">
        <g id="T4-Articles-&amp;-News-1440" transform="translate(-390.000000, -2512.000000)">
            <g id="articles_twitter_icon" transform="translate(391.000000, 2514.000000)">
                <path d="M27.23033,12.4899333 C26.5802065,12.8708889 25.8618332,13.1479476 25.0940225,13.2961908 C24.482399,12.6500022 23.608276,12.2462399 22.6405283,12.2462399 C20.7855327,12.2462399 19.2800987,13.7362748 19.2800987,15.5739001 C19.2800987,15.8349097 19.3089737,16.0878946 19.3667235,16.331588 C16.5728551,16.1926363 14.0961734,14.8694278 12.4371773,12.8535727 C12.147553,13.3468723 11.9821784,13.9191504 11.9821784,14.528595 C11.9821784,15.6824429 12.575427,16.7011403 13.4779874,17.2979145 C12.9276137,17.2818654 12.4083024,17.1306657 11.9541785,16.8831712 L11.9541785,16.9237164 C11.9541785,18.5366539 13.1131133,19.8822466 14.6522346,20.1867578 C14.3704853,20.2648917 14.072986,20.3041698 13.7662992,20.3041698 C13.5497372,20.3041698 13.3384252,20.2838972 13.1336757,20.2450414 C13.5615497,21.5665605 14.8022968,22.5290859 16.2736058,22.554849 C15.123421,23.4476874 13.6731119,23.9798427 12.0985531,23.9798427 C11.8273038,23.9798427 11.5591169,23.9646383 11.2966175,23.9342294 C12.784114,24.8769046 14.5520474,25.4280655 16.4499179,25.4280655 C22.6339658,25.4280655 26.0145204,20.35823 26.0145204,15.9603463 C26.0145204,15.8154818 26.0118954,15.6710396 26.0062079,15.5291315 C26.6628938,15.0599057 27.2333925,14.4741124 27.6822664,13.8068065 C27.0802679,14.0711948 26.4318944,14.2502693 25.752021,14.330515 C26.4463319,13.9191504 26.9792056,13.267049 27.23033,12.4899333" id="Twitter" fill="#0077DA"></path>
                <path d="M18.7871999,36.7294279 C28.8709775,36.7294279 37.0454944,28.5072654 37.0454944,18.364714 C37.0454944,8.22216251 28.8709775,0 18.7871999,0 C8.70342228,0 0.528905387,8.22216251 0.528905387,18.364714 C0.528905387,28.5072654 8.70342228,36.7294279 18.7871999,36.7294279 Z" id="Oval-7-Copy-2" stroke="#0077DA" stroke-width="3"></path>
            </g>
        </g>
    </g>
</svg>