<?xml version="1.0" encoding="UTF-8" standalone="no"?>
<svg width="40px" height="39px" viewBox="0 0 40 39" version="1.1" xmlns="http://www.w3.org/2000/svg" xmlns:xlink="http://www.w3.org/1999/xlink">
    <!-- Generator: sketchtool 39.1 (31720) - http://www.bohemiancoding.com/sketch -->
    <title>C488087C-D826-4C57-A3A8-CBF77B7FD37F</title>
    <desc>Created with sketchtool.</desc>
    <defs></defs>
    <g id="T5--Careers" stroke="none" stroke-width="1" fill="none" fill-rule="evenodd">
        <g id="Careers-1440" transform="translate(-505.000000, -3862.000000)">
            <g id="add_attachment_icon" transform="translate(505.000000, 3862.000000)">
                <rect id="Rectangle-26-Copy" fill="#FFFFFF" x="0" y="0" width="40" height="39"></rect>
                <path d="M10,19.3625 C10,16.4375 12.5,14 15.5,14 L26,14 C28.2,14 30,15.755 30,17.9 C30,20.045 28.2,21.8 26,21.8 L17.5,21.8 C16.1,21.8 15,20.7275 15,19.3625 C15,17.9975 16.1,16.925 17.5,16.925 L25,16.925 L25,18.3875 L17.5,18.3875 C16.9,18.3875 16.5,18.7775 16.5,19.3625 C16.5,19.9475 16.9,20.3375 17.5,20.3375 L26,20.3375 C27.4,20.3375 28.5,19.265 28.5,17.9 C28.5,16.535 27.4,15.4625 26,15.4625 L15.5,15.4625 C13.3,15.4625 11.5,17.2175 11.5,19.3625 C11.5,21.5075 13.3,23.2625 15.5,23.2625 L25,23.2625 L25,24.725 L15.5,24.725 C12.5,24.725 10,22.2875 10,19.3625 Z" id="Shape" fill="#287AD9"></path>
            </g>
        </g>
    </g>
</svg>