<?xml version="1.0" encoding="UTF-8" standalone="no"?>
<svg width="46px" height="46px" viewBox="0 0 46 46" version="1.1" xmlns="http://www.w3.org/2000/svg" xmlns:xlink="http://www.w3.org/1999/xlink">
    <!-- Generator: sketchtool 39.1 (31720) - http://www.bohemiancoding.com/sketch -->
    <title>7DA18B07-CE3A-4E76-A60D-A3F442A2EE9B</title>
    <desc>Created with sketchtool.</desc>
    <defs></defs>
    <g id="Symbols" stroke="none" stroke-width="1" fill="none" fill-rule="evenodd">
        <g id="Desktop-footer" transform="translate(-1263.000000, -77.000000)">
            <g id="footer_linkedin_icon" transform="translate(1264.000000, 79.000000)">
                <path d="M13.5652353,16.9873314 L17.0662062,16.9873314 L17.0662062,27.6257153 L13.5652353,27.6257153 L13.5652353,16.9873314 Z M26.6317936,16.8850662 C24.6261609,16.8850662 23.3694146,17.9268638 23.1371527,18.6571962 L23.1371527,16.9873314 L19.2042818,16.9873314 C19.2549217,17.8740968 19.2042818,27.6257153 19.2042818,27.6257153 L23.1371527,27.6257153 L23.1371527,21.8689777 C23.1371527,21.549107 23.1215712,21.2292364 23.222851,20.9994899 C23.4930929,20.3597486 24.0739911,19.6961921 25.1184393,19.6961921 C26.4842562,19.6961921 27.105082,20.6796192 27.105082,22.1206715 L27.105082,27.6257153 L31.0749591,27.6257153 L31.0749591,21.7106767 C31.0749591,18.4153086 29.1199663,16.8850662 26.6317936,16.8850662 Z M15.2509601,11.9655958 C13.9581816,11.9655958 13.1123977,12.7617701 13.1123977,13.8124401 C13.1123977,14.8434976 13.9343224,15.6569497 15.2012941,15.6569497 L15.226614,15.6569497 C16.5427648,15.6569497 17.362255,14.8406958 17.362255,13.8096383 C17.336935,12.7599023 16.5427648,11.9655958 15.2509601,11.9655958 Z" id="Fill-88" fill="#FFFFFF"></path>
                <ellipse id="Oval-7-Copy-3" stroke="#FFFFFF" stroke-width="3" cx="21.8215183" cy="21.2117379" rx="21.2284817" ry="21.2117379"></ellipse>
            </g>
        </g>
    </g>
</svg>