<?xml version="1.0" encoding="UTF-8" standalone="no"?>
<svg width="47px" height="46px" viewBox="0 0 47 46" version="1.1" xmlns="http://www.w3.org/2000/svg" xmlns:xlink="http://www.w3.org/1999/xlink">
    <!-- Generator: sketchtool 39.1 (31720) - http://www.bohemiancoding.com/sketch -->
    <title>07F40877-6EBD-4A36-90F0-FA8A3EC3F9B2</title>
    <desc>Created with sketchtool.</desc>
    <defs></defs>
    <g id="Symbols" stroke="none" stroke-width="1" fill="none" fill-rule="evenodd">
        <g id="Desktop-footer" transform="translate(-1194.000000, -77.000000)">
            <g id="footer_twiiter_icon" transform="translate(1196.000000, 79.000000)">
                <path d="M31.269911,14.4262084 C30.514028,14.8662224 29.6787926,15.1862326 28.7860775,15.3574576 C28.0749574,14.6110923 27.0586356,14.144736 25.9334585,14.144736 C23.7766995,14.144736 22.0263675,15.8657664 22.0263675,17.988273 C22.0263675,18.289746 22.0599397,18.5819504 22.1270841,18.8634228 C18.8787202,18.7029299 15.9991417,17.1745886 14.0702667,14.8462218 C13.7335275,15.415996 13.5412504,16.0769926 13.5412504,16.7809175 C13.5412504,18.1136428 14.2310063,19.2902657 15.2803916,19.9795559 C14.6404853,19.9610187 14.0366945,19.786379 13.5086955,19.5005162 L13.5086955,19.547347 C13.5086955,21.4103331 14.8561612,22.9645289 16.6456608,23.3162474 C16.3180776,23.4064942 15.9721823,23.4518615 15.6156049,23.4518615 C15.3638135,23.4518615 15.118126,23.4284461 14.8800687,23.3835667 C15.3775475,24.9099567 16.8201344,26.0216994 18.5307902,26.0514565 C17.1934979,27.0827088 15.5072583,27.6973625 13.6765565,27.6973625 C13.3611813,27.6973625 13.0493669,27.679801 12.7441652,27.6446779 C14.4736417,28.733493 16.5291754,29.3700987 18.735784,29.3700987 C25.9258284,29.3700987 29.8563182,23.5143025 29.8563182,18.4346287 C29.8563182,18.2673063 29.8532662,18.1004717 29.8466535,17.936564 C30.6101665,17.3945956 31.2734717,16.7179887 31.7953666,15.9472324 C31.0954373,16.252608 30.341589,16.4594438 29.5511165,16.5521297 C30.3583751,16.0769926 30.9779346,15.3237979 31.269911,14.4262084" id="Twitter" fill="#FFFFFF"></path>
                <ellipse id="Oval-7-Copy-2" stroke="#FFFFFF" stroke-width="3" cx="21.4532858" cy="21.2117379" rx="21.2284817" ry="21.2117379"></ellipse>
            </g>
        </g>
    </g>
</svg>