<?xml version="1.0" encoding="UTF-8" standalone="no"?>
<svg width="46px" height="46px" viewBox="0 0 46 46" version="1.1" xmlns="http://www.w3.org/2000/svg" xmlns:xlink="http://www.w3.org/1999/xlink">
    <!-- Generator: sketchtool 39.1 (31720) - http://www.bohemiancoding.com/sketch -->
    <title>01C7575A-D02B-4588-9EBA-3DD9F4EF6A36</title>
    <desc>Created with sketchtool.</desc>
    <defs></defs>
    <g id="Symbols" stroke="none" stroke-width="1" fill="none" fill-rule="evenodd">
        <g id="Desktop-footer" transform="translate(-1059.000000, -77.000000)">
            <g id="footer_facebook_icon" transform="translate(1061.000000, 79.000000)">
                <path d="M19.5948687,11.9706478 C20.4226758,11.183034 21.6001341,10.9170122 22.7108671,10.8838561 C23.8855947,10.8733017 25.0598585,10.8796858 26.234586,10.8801492 C26.2392233,12.1184091 26.239584,13.3571323 26.2341223,14.5953407 C25.4749471,14.5940021 24.7152051,14.5971942 23.9560814,14.5940021 C23.4746796,14.564038 22.980345,14.928653 22.8928033,15.4055048 C22.8813131,16.234049 22.8886813,17.0630566 22.8890935,17.8916523 C24.0025573,17.8962344 25.1160727,17.8902622 26.229485,17.8944325 C26.1479718,19.0930491 25.9991149,20.2862083 25.8245984,21.4747339 C24.8410816,21.4839497 23.8569981,21.4738072 22.8734813,21.4798309 C22.864722,25.0150318 22.8781186,28.5502326 22.8666284,32.0854335 C21.4057803,32.0914057 19.9440564,32.0826533 18.4832598,32.0895522 C18.4555907,28.553888 18.4855269,25.0164219 18.4680598,21.4802943 C17.7553605,21.4728805 17.042249,21.4853913 16.3296013,21.4743221 C16.3323321,20.2857965 16.3305287,19.0973223 16.3309409,17.9092086 C17.043125,17.9005077 17.7558243,17.911062 18.4680598,17.9041631 C18.4897005,16.7487422 18.4463676,15.5919826 18.490628,14.4375399 C18.5620422,13.5232736 18.910766,12.6021598 19.5948687,11.9706478" id="Fill-1" fill="#FFFFFF"></path>
                <ellipse id="Oval-7" stroke="#FFFFFF" stroke-width="3" cx="21.2284817" cy="21.2117379" rx="21.2284817" ry="21.2117379"></ellipse>
            </g>
        </g>
    </g>
</svg>