<?xml version="1.0" encoding="UTF-8" standalone="no"?>
<svg width="34px" height="34px" viewBox="0 0 34 34" version="1.1" xmlns="http://www.w3.org/2000/svg" xmlns:xlink="http://www.w3.org/1999/xlink">
    <!-- Generator: Sketch 39.1 (31720) - http://www.bohemiancoding.com/sketch -->
    <title>info_icon</title>
    <desc>Created with Sketch.</desc>
    <defs></defs>
    <g id="T0-OCIO" stroke="none" stroke-width="1" fill="none" fill-rule="evenodd" opacity="0.85">
        <g id="OCIO-1440" transform="translate(-1383.000000, -702.000000)">
            <g id="info_icon" transform="translate(1385.000000, 704.000000)">
                <circle id="Oval" stroke="#FFFFFF" stroke-width="3" cx="15" cy="15" r="15"></circle>
                <path d="M17.5958573,11.588713 L16.0996608,18.6060855 C16.0153676,18.9994537 15.9451243,19.3664748 15.8889289,19.7071597 C15.8327334,20.0478447 15.8046361,20.3692076 15.8046361,20.6712582 C15.8046361,20.9873577 15.8696111,21.2296969 15.9995631,21.3982833 C16.1295151,21.5668697 16.3139037,21.6511616 16.5527344,21.6511616 C16.7775162,21.6511616 16.9847338,21.6090156 17.1743935,21.5247225 C17.3640532,21.4404293 17.5818073,21.3175035 17.8276624,21.1559416 L18.3439556,21.8829667 C18.1753692,22.0656019 17.9822002,22.2464783 17.7644428,22.4256014 C17.5466855,22.6047244 17.300834,22.7645278 17.0268812,22.9050164 C16.7529283,23.0455051 16.4526384,23.1578943 16.1260023,23.2421875 C15.7993662,23.3264807 15.4393694,23.3686266 15.0460012,23.3686266 C14.2171183,23.3686266 13.5814167,23.1737016 13.1388775,22.7838456 C12.6963382,22.3939896 12.475072,21.8513604 12.475072,21.1559416 C12.475072,20.8468666 12.5031693,20.4780895 12.5593647,20.0495991 C12.6155602,19.6211087 12.7033643,19.132918 12.8227796,18.5850123 L13.6657072,14.5705695 C13.6867805,14.4792519 13.7060974,14.3844235 13.7236585,14.2860814 C13.7412196,14.1877394 13.7570243,14.094667 13.7710732,14.0068616 C13.7851221,13.9190562 13.7956585,13.8435447 13.802683,13.7803248 C13.8097074,13.7171049 13.8132196,13.6714468 13.8132196,13.6433491 C13.8132196,13.446665 13.7921466,13.2886176 13.75,13.1692023 C13.7078534,13.049787 13.6411223,12.9584707 13.5498047,12.8952508 C13.4584871,12.8320309 13.3408296,12.789885 13.1968287,12.7688117 C13.0528279,12.7477384 12.8789758,12.7372019 12.6752673,12.7372019 L12.2854132,12.7372019 L12.475072,11.588713 L17.5958573,11.588713 Z M16.0996608,9.64997944 C15.8608301,9.64997944 15.6395638,9.62363822 15.4358553,9.57095498 C15.2321467,9.51827173 15.0547825,9.4357359 14.9037572,9.32334498 C14.7527319,9.21095407 14.6333184,9.07046754 14.545513,8.90188117 C14.4577076,8.7332948 14.4138055,8.53661365 14.4138055,8.31183183 C14.4138055,7.99573238 14.468244,7.72705189 14.5771227,7.50578228 C14.6860014,7.28451267 14.8317562,7.10188017 15.0143914,6.95787932 C15.1970267,6.81387846 15.4112686,6.70851356 15.6571238,6.64178146 C15.9029789,6.57504935 16.1593668,6.5416838 16.4262952,6.5416838 C16.6581015,6.5416838 16.8776117,6.56626894 17.0848324,6.61543997 C17.2920532,6.66461099 17.4746857,6.74539075 17.6327354,6.85778166 C17.7907851,6.97017257 17.917223,7.11241519 18.0120528,7.28451377 C18.1068827,7.45661236 18.1542969,7.66207392 18.1542969,7.90090461 C18.1542969,8.19593075 18.0963462,8.45407476 17.9804431,8.67534437 C17.8645399,8.89661398 17.7100047,9.07924647 17.5168329,9.22324733 C17.323661,9.36724818 17.1041508,9.47436917 16.8582956,9.54461349 C16.6124405,9.61485781 16.3595648,9.64997944 16.0996608,9.64997944 L16.0996608,9.64997944 Z" id="i" fill="#FFFFFF"></path>
            </g>
        </g>
    </g>
</svg>