<?xml version="1.0" encoding="UTF-8" standalone="no"?>
<svg width="72px" height="72px" viewBox="0 0 72 72" version="1.1" xmlns="http://www.w3.org/2000/svg" xmlns:xlink="http://www.w3.org/1999/xlink">
    <!-- Generator: Sketch 39.1 (31720) - http://www.bohemiancoding.com/sketch -->
    <title>LinkedIn_icon@1.5x</title>
    <desc>Created with Sketch.</desc>
    <defs></defs>
    <g id="T0-OCIO" stroke="none" stroke-width="1" fill="none" fill-rule="evenodd">
        <g id="Desktop-rollover" transform="translate(-961.000000, -1407.000000)">
            <g id="LinkedIn_icon" transform="translate(963.000000, 1409.000000)">
                <path d="M20.6565771,26.7068149 L26.2780547,26.7068149 L26.2780547,46.0864866 L20.6565771,46.0864866 L20.6565771,26.7068149 Z M41.6374329,26.520521 C38.4170064,26.520521 36.3990601,28.4183372 36.0261192,29.748765 L36.0261192,26.7068149 L29.7111435,26.7068149 C29.7924556,28.3222129 29.7111435,46.0864866 29.7111435,46.0864866 L36.0261192,46.0864866 L36.0261192,35.599585 C36.0261192,35.0168849 36.0011001,34.4341847 36.1637242,34.0156614 C36.5976491,32.850261 37.5303922,31.6414772 39.2074534,31.6414772 C41.4005333,31.6414772 42.3973878,33.4329612 42.3973878,36.0580892 L42.3973878,46.0864866 L48.7717839,46.0864866 L48.7717839,35.3112122 C48.7717839,29.3081246 45.6326694,26.520521 41.6374329,26.520521 Z M23.3633303,17.5588477 C21.2875274,17.5588477 19.9294597,19.0092182 19.9294597,20.9231968 C19.9294597,22.8014479 21.2492169,24.2832927 23.2835819,24.2832927 L23.324238,24.2832927 C25.4375696,24.2832927 26.7534175,22.7963439 26.7534175,20.9180929 C26.7127615,19.0058156 25.4375696,17.5588477 23.3633303,17.5588477 Z" id="Fill-88" fill="#B5B4B4"></path>
                <ellipse id="Oval-7-Copy-3" stroke="#B5B4B4" stroke-width="3" cx="34.0863831" cy="34.0991019" rx="34.0863831" ry="34.0991019"></ellipse>
            </g>
        </g>
    </g>
</svg>