<?xml version="1.0" encoding="UTF-8" standalone="no"?>
<svg width="72px" height="72px" viewBox="0 0 72 72" version="1.1" xmlns="http://www.w3.org/2000/svg" xmlns:xlink="http://www.w3.org/1999/xlink">
    <!-- Generator: Sketch 39.1 (31720) - http://www.bohemiancoding.com/sketch -->
    <title>Facebook_icon@1.5x</title>
    <desc>Created with Sketch.</desc>
    <defs></defs>
    <g id="T0-OCIO" stroke="none" stroke-width="1" fill="none" fill-rule="evenodd">
        <g id="Desktop-rollover" transform="translate(-634.000000, -1407.000000)">
            <g id="Facebook_icon" transform="translate(636.000000, 1409.000000)">
                <path d="M31.4633055,19.2435123 C32.7925078,17.9773773 34.6831422,17.5497319 36.4666362,17.4964314 C38.3528857,17.4794646 40.2383906,17.4897275 42.1246401,17.4904723 C42.1320862,19.4810471 42.1326653,21.4723668 42.1238955,23.4628588 C40.9048947,23.4607069 39.6849838,23.4658383 38.4660657,23.4607069 C37.6930831,23.4125378 36.8993344,23.9986777 36.7587695,24.7652447 C36.7403199,26.0971777 36.7521508,27.4298555 36.7528127,28.7618713 C38.5406916,28.7692373 40.3286533,28.7596366 42.1164495,28.7663405 C41.9855645,30.6931865 41.7465463,32.6112593 41.4663267,34.5218833 C39.8871026,34.5366982 38.3069684,34.5203936 36.7277443,34.5300771 C36.7136796,40.2131179 36.7351904,45.8961588 36.7167407,51.5791997 C34.3710701,51.5888004 32.0239929,51.5747304 29.678405,51.5858209 C29.6339769,45.9020351 29.6820453,40.2153526 29.6539985,34.5308219 C28.5096236,34.5189038 27.3645869,34.5390156 26.2202947,34.5212212 C26.2246796,32.6105972 26.2217839,30.7000559 26.2224458,28.790094 C27.3659934,28.7761068 28.5103682,28.7930736 29.6539985,28.7819831 C29.6887467,26.9245768 29.6191676,25.0650186 29.6902359,23.2091848 C29.8049051,21.7394486 30.3648479,20.2587046 31.4633055,19.2435123" id="Fill-1" fill="#B5B4B4"></path>
                <ellipse id="Oval-7" stroke="#B5B4B4" stroke-width="3" cx="34.0863831" cy="34.0991019" rx="34.0863831" ry="34.0991019"></ellipse>
            </g>
        </g>
    </g>
</svg>