<?xml version="1.0" encoding="UTF-8" standalone="no"?>
<svg width="72px" height="72px" viewBox="0 0 72 72" version="1.1" xmlns="http://www.w3.org/2000/svg" xmlns:xlink="http://www.w3.org/1999/xlink">
    <!-- Generator: Sketch 39.1 (31720) - http://www.bohemiancoding.com/sketch -->
    <title>teal_Twitter_icon_hover@1.5x</title>
    <desc>Created with Sketch.</desc>
    <defs></defs>
    <g id="T0-OCIO" stroke="none" stroke-width="1" fill="none" fill-rule="evenodd">
        <g id="Desktop-rollover" transform="translate(-852.000000, -1407.000000)">
            <g id="teal_Twitter_icon_hover" transform="translate(853.000000, 1409.000000)">
                <ellipse id="Oval-7-Copy-2" stroke="#00B7A5" stroke-width="3" fill="#00B7A5" cx="34.6973492" cy="34.0991019" rx="34.0863831" ry="34.0991019"></ellipse>
                <path d="M50.4598164,23.1909687 C49.2461019,23.8983168 47.9049718,24.4127518 46.4715471,24.6880059 C45.329708,23.4881804 43.6978092,22.7384855 41.8911224,22.7384855 C38.4280338,22.7384855 35.6175413,25.5051419 35.6175413,28.9171947 C35.6175413,29.4018301 35.6714479,29.8715657 35.779261,30.3240489 C30.5633922,30.0660472 25.9396788,27.6091496 22.8425015,23.8661646 C22.3018022,24.7821099 21.9930646,25.8447004 21.9930646,26.9763005 C21.9930646,29.118734 23.1005996,31.0102236 24.7855882,32.1182977 C23.7580963,32.0884981 22.7885949,31.8077546 21.9407916,31.3482136 L21.9407916,31.4234968 C21.9407916,34.4183553 24.1044052,36.9168154 26.9777886,37.4822234 C26.4517912,37.6273003 25.8963902,37.7002309 25.3238371,37.7002309 C24.9195379,37.7002309 24.5250398,37.6625893 24.1427932,37.5904429 C24.9415905,40.0442037 27.2579394,41.8313947 30.0047241,41.8792309 C27.8574458,43.5370289 25.1498659,44.5251205 22.2103244,44.5251205 C21.7039294,44.5251205 21.2032517,44.4968893 20.713192,44.440427 C23.490197,46.1907606 26.7907492,47.2141412 30.3338809,47.2141412 C41.8788709,47.2141412 48.1900232,37.8006084 48.1900232,29.6347374 C48.1900232,29.3657569 48.1851226,29.0975606 48.1745046,28.8340695 C49.4004707,27.9628237 50.4655338,26.8751387 51.3035359,25.6361033 C50.1796656,26.1270123 48.9692181,26.4595129 47.6999635,26.6085109 C48.9961714,25.8447004 49.9909926,24.6338961 50.4598164,23.1909687" id="Twitter" fill="#F3F3F3"></path>
            </g>
        </g>
    </g>
</svg>