<?xml version="1.0" encoding="UTF-8" standalone="no"?>
<svg width="18px" height="15px" viewBox="0 0 18 15" version="1.1" xmlns="http://www.w3.org/2000/svg" xmlns:xlink="http://www.w3.org/1999/xlink">
    <!-- Generator: Sketch 39.1 (31720) - http://www.bohemiancoding.com/sketch -->
    <title>Twitter@1.5x</title>
    <desc>Created with Sketch.</desc>
    <defs></defs>
    <g id="Symbols" stroke="none" stroke-width="1" fill="none" fill-rule="evenodd">
        <g id="Articles" transform="translate(-1134.000000, -108.000000)" fill="#4990E2">
            <g id="Group-5" transform="translate(1030.000000, 79.000000)">
                <path d="M118.663162,30.1947711 C118.016854,29.4594534 117.093162,29 116.070535,29 C114.110346,29 112.519542,30.6955561 112.519542,32.7866457 C112.519542,33.0836564 112.550054,33.3715357 112.611079,33.6488418 C109.658776,33.4907244 107.041647,31.9850053 105.288572,29.6911025 C104.982524,30.252443 104.807771,30.9036558 104.807771,31.5971613 C104.807771,32.9101599 105.434662,34.0693666 106.388404,34.7484541 C105.80682,34.7301913 105.25806,34.5581366 104.778183,34.2765051 L104.778183,34.3226427 C104.778183,36.1580533 106.002839,37.6892442 107.629241,38.0357566 C107.331514,38.1246676 107.017144,38.1693634 106.693066,38.1693634 C106.464223,38.1693634 106.240928,38.1462946 106.024567,38.1020794 C106.476705,39.6058761 107.787813,40.7011631 109.342557,40.7304796 C108.127147,41.7464676 106.594594,42.3520233 104.930745,42.3520233 C104.644114,42.3520233 104.360719,42.3347217 104.083333,42.3001185 C105.655183,43.3728173 107.523372,44 109.528867,44 C116.0636,44 119.635859,38.2308801 119.635859,33.2263945 C119.635859,33.0615488 119.633085,32.8971837 119.627075,32.7357022 C120.321001,32.2017558 120.923851,31.5351639 121.39818,30.7758162 C120.762043,31.0766717 120.076902,31.280446 119.358474,31.37176 C120.092158,30.9036558 120.65525,30.1616097 120.920615,29.2773061 C120.233624,29.7108071 119.474514,30.0260805 118.663162,30.1947711 Z" id="Twitter"></path>
            </g>
        </g>
    </g>
</svg>