<?xml version="1.0" encoding="UTF-8" standalone="no"?>
<svg width="24px" height="25px" viewBox="0 0 24 25" version="1.1" xmlns="http://www.w3.org/2000/svg" xmlns:xlink="http://www.w3.org/1999/xlink">
    <!-- Generator: sketchtool 39.1 (31720) - http://www.bohemiancoding.com/sketch -->
    <title>06619870-C585-4363-BD21-EB0B9F3DAE7F</title>
    <desc>Created with sketchtool.</desc>
    <defs></defs>
    <g id="Symbols" stroke="none" stroke-width="1" fill="none" fill-rule="evenodd">
        <g id="Desktop-nav" transform="translate(-1219.000000, -17.000000)">
            <g id="nav_Search_icon" transform="translate(1208.000000, 7.000000)">
                <rect id="Rectangle-6" x="0" y="0" width="44" height="44"></rect>
                <rect id="Rectangle-6" x="0" y="0" width="44" height="44"></rect>
                <path d="M13.9387755,19.861 C13.9387755,16.078 16.9539592,13 20.6602449,13 C24.3665306,13 27.3812245,16.078 27.3812245,19.861 C27.3812245,21.758 26.6230204,23.477 25.4,24.7205 C25.3108571,24.7785 25.2251429,24.8455 25.1472653,24.925 C25.1115102,24.9615 25.0840816,25.0035 25.0527347,25.0425 C23.8733061,26.086 22.3397551,26.723 20.6602449,26.723 C16.9539592,26.723 13.9387755,23.6445 13.9387755,19.861 M34.1942857,32.0395 L28.2373878,25.9585 C29.5373061,24.2785 30.32,22.163 30.32,19.861 C30.32,14.4235 25.9867755,10 20.6602449,10 C15.3337143,10 11,14.4235 11,19.861 C11,25.299 15.3337143,29.723 20.6602449,29.723 C22.6728163,29.723 24.5423673,29.0895 26.0915918,28.0105 L32.1160816,34.161 C32.403102,34.454 32.7792653,34.6005 33.1554286,34.6005 C33.531102,34.6005 33.9077551,34.454 34.1942857,34.161 C34.7683265,33.5755 34.7683265,32.6255 34.1942857,32.0395" fill-opacity="0.5" fill="#FFFFFF"></path>
            </g>
        </g>
    </g>
</svg>