<?xml version="1.0" encoding="UTF-8" standalone="no"?>
<svg width="44px" height="44px" viewBox="0 0 44 44" version="1.1" xmlns="http://www.w3.org/2000/svg" xmlns:xlink="http://www.w3.org/1999/xlink">
    <!-- Generator: Sketch 40.3 (33839) - http://www.bohemiancoding.com/sketch -->
    <title>nav_Language_icon</title>
    <desc>Created with Sketch.</desc>
    <defs>
        <polygon id="path-1" points="26.5737352 11.3686897 26.5737352 0.257265902 0 0.257265902 2.07492027e-15 22.4801135 26.5737352 22.4801135 26.5737352 11.3686897"></polygon>
        <polygon id="path-3" points="13.2868384 22.4711538 0 22.4711538 0 0.248046967 26.5736768 0.248046967 26.5736768 22.4711538"></polygon>
    </defs>
    <g id="Symbols" stroke="none" stroke-width="1" fill="none" fill-rule="evenodd">
        <g id="Desktop-nav" transform="translate(-1268.000000, -7.000000)">
            <g id="nav_Language_icon" transform="translate(1268.000000, 7.000000)">
                <rect id="Rectangle-6-Copy" x="0" y="0" width="44" height="44"></rect>
                <g id="Group" transform="translate(1.000000, 8.000000)">
                    <g id="Group-3" transform="translate(14.016915, 0.030826)">
                        <mask id="mask-2" fill="white">
                            <use xlink:href="#path-1"></use>
                        </mask>
                        <g id="Clip-2"></g>
                        <path d="M1.46009534,16.1495861 L15.0214608,16.1495861 C15.2241221,16.1495861 15.4171467,16.2325565 15.5552717,16.378331 L18.9178713,19.9328065 L18.9178713,16.8698154 C18.9178713,16.4719608 19.2446406,16.1495861 19.6479189,16.1495861 L25.1136398,16.1495861 L25.1136398,1.6974652 L1.46009534,1.6974652 L1.46009534,16.1495861 Z M19.648211,22.4801135 C19.449638,22.4801135 19.2551533,22.4003121 19.1144001,22.2513687 L14.7043281,17.5900447 L0.730047669,17.5900447 C0.326769337,17.5900447 0,17.2676701 0,16.8698154 L0,0.97723591 C0,0.579669342 0.326769337,0.25700662 0.730047669,0.25700662 L25.8436875,0.25700662 C26.2469658,0.25700662 26.5737352,0.579669342 26.5737352,0.97723591 L26.5737352,16.8698154 C26.5737352,17.2676701 26.2469658,17.5900447 25.8436875,17.5900447 L20.3779666,17.5900447 L20.3779666,21.7598842 C20.3779666,22.0557544 20.1945786,22.321375 19.9157004,22.4299855 C19.8286787,22.4636923 19.7381528,22.4801135 19.648211,22.4801135 L19.648211,22.4801135 Z" id="Fill-1" stroke="#8F9DAC" stroke-width="0.35" fill="#8F9DAC" mask="url(#mask-2)"></path>
                    </g>
                    <g id="Group-6" transform="translate(0.000000, 7.233119)">
                        <mask id="mask-4" fill="white">
                            <use xlink:href="#path-3"></use>
                        </mask>
                        <g id="Clip-5"></g>
                        <path d="M6.65797634,22.4210259 C6.37909813,22.3124153 6.19571016,22.0467947 6.19571016,21.7509246 L6.19571016,17.5810851 L0.729989265,17.5810851 C0.326710933,17.5810851 -5.84038135e-05,17.2587104 -5.84038135e-05,16.8608558 L-5.84038135e-05,0.968276257 C-5.84038135e-05,0.570421598 0.326710933,0.248046967 0.729989265,0.248046967 L14.0489789,0.248046967 C14.4519653,0.248046967 14.7790266,0.570421598 14.7790266,0.968276257 C14.7790266,1.36613092 14.4519653,1.68850555 14.0489789,1.68850555 L1.46003693,1.68850555 L1.46003693,16.1406265 L6.92575783,16.1406265 C7.32903616,16.1406265 7.65580549,16.4630011 7.65580549,16.8608558 L7.65580549,19.9238469 L11.0186971,16.3693713 C11.1565301,16.2233088 11.3495547,16.1406265 11.5522159,16.1406265 L25.1135814,16.1406265 L25.1135814,10.1353547 C25.1135814,9.7375 25.4403508,9.41512537 25.8436291,9.41512537 C26.2469074,9.41512537 26.5736768,9.7375 26.5736768,10.1353547 L26.5736768,16.8608558 C26.5736768,17.2587104 26.2469074,17.5810851 25.8436291,17.5810851 L11.8693486,17.5810851 L7.45927666,22.242409 C7.31881549,22.3913524 7.12433079,22.4711538 6.92546581,22.4711538 C6.83552393,22.4711538 6.74499802,22.4547326 6.65797634,22.4210259 Z" id="Fill-4" stroke="#8F9DAC" stroke-width="0.35" fill="#8F9DAC" mask="url(#mask-4)"></path>
                    </g>
                </g>
                <text id="文" font-family="AppleSDGothicNeo-Bold, Apple SD Gothic Neo" font-size="12" font-weight="bold" fill="#8F9DAC">
                    <tspan x="23" y="21">文</tspan>
                </text>
                <path d="M9.88062107,25.1106601 L9.24285143,25.1319789 C8.76364814,25.1463835 8.40709285,25.2313705 8.17289356,25.3878043 C7.93869427,25.5442381 7.82159462,25.78249 7.82159462,26.1022718 C7.82159462,26.5609138 8.08820803,26.7899467 8.62143485,26.7899467 C9.00310377,26.7899467 9.30855572,26.6816242 9.53720665,26.4649793 C9.7661496,26.2480462 9.88062107,25.9602426 9.88062107,25.6012803 L9.88062107,25.1106601 Z M10.3668328,27.8723073 L10.047948,27.0619053 L10.0050212,27.0619053 C9.72760308,27.4067511 9.44200843,27.6455791 9.14823725,27.7789656 C8.85446607,27.912352 8.47192109,27.9789012 8.00001827,27.9789012 C7.41977639,27.9789012 6.96335058,27.8155532 6.63015683,27.488281 C6.29696307,27.161585 6.13022018,26.6957407 6.13022018,26.0916124 C6.13022018,25.458963 6.35449083,24.9925425 6.80303212,24.6920628 C7.2515734,24.3918713 7.92788956,24.2256423 8.8319806,24.1936642 L9.88062107,24.161686 L9.88062107,23.9003868 C9.88062107,23.2962585 9.56728461,22.9940503 8.94002765,22.9940503 C8.45732013,22.9940503 7.8902191,23.1380961 7.23784851,23.4258997 L6.69206487,22.3276941 C7.38736227,21.9687318 8.15858463,21.7892507 9.00514791,21.7892507 C9.81550082,21.7892507 10.4372094,21.9635462 10.8693976,22.3118491 C11.3015859,22.660152 11.51768,23.1896645 11.51768,23.9003868 L11.51768,27.8723073 L10.3668328,27.8723073 Z" id="Fill-11" fill="#8F9DAC"></path>
            </g>
        </g>
    </g>
</svg>